<svg width="2381" height="479" viewBox="0 0 2381 479" fill="none" xmlns="http://www.w3.org/2000/svg">

    <style>
        path {
            fill: black;
        }

        @media (prefers-color-scheme: dark) {
            path {
                fill: white;
            }
        }
    </style>
    
    <path fill-rule="evenodd" clip-rule="evenodd" d="M822.563 117.2C821.778 122.724 820.89 128.624 819.9 134.9L819.53 137.2H2277.24L2284 168.4H2304.47L2295.07 125.081L2293.36 117.2H2285.3H822.563ZM2346.8 458L2341.03 431.4H2361.5L2368.97 465.881L2371.6 478H2359.2H17.3001H5.8463L7.39147 466.651L16.0219 403.262C20.9854 409.049 27.0787 414.053 34.1768 418.169L28.7538 458H2346.8ZM68.1693 168.5L72.4308 137.2H599.905L602.801 117.2H63.7001H54.9693L53.7915 125.851L47.9848 168.5H68.1693ZM691.994 117.2H732.9L729.731 137.2H689.58C690.622 130.106 691.383 123.435 691.994 117.2Z" fill="black"/>
    <path d="M2329.2 183.4H2263L2136.6 416.4H2200.9L2223.3 375.9H2306.8L2315.5 416.4H2380.1L2329.2 183.4ZM2247.4 329.6L2284.1 255.4H2284.7L2297.7 329.6H2247.4Z" fill="black"/>
    <path d="M2187.3 234.7L2195.4 183.4H2034.9L2026.8 234.7H2076.8L2048.1 416.4H2108.6L2137.3 234.7H2187.3Z" fill="black"/>
    <path d="M1903 183.4L1776.6 416.4H1840.9L1863.3 375.9H1946.8L1955.5 416.4H2020.1L1969.2 183.4H1903ZM1887.3 329.6L1924 255.4H1924.6L1937.6 329.6H1887.3Z" fill="black"/>
    <path d="M1688.1 183.4H1602.2L1565.4 416.4H1651.3C1715.9 416.4 1777.7 365.4 1788.1 299.9C1798.4 234.4 1753 183.4 1688.1 183.4ZM1725 299.9C1717.8 345.3 1683.8 365.2 1647.6 365.2H1634L1654.6 234.8H1668.8C1707.8 234.7 1731.5 258.2 1725 299.9Z" fill="black"/>
    <path d="M1383.7 297.8C1382.1 309.2 1380.8 320.3 1380.8 330.7V336.6C1376.9 319.3 1371 307.3 1367.4 298.5L1318.2 183.4H1247.1L1210.3 416.4H1272.6L1290.2 298.4C1291.5 288.3 1292.8 277.6 1292.8 266.2V259.7C1296.7 276 1302.2 288.4 1306.5 297.8L1358.6 416.4H1427.1L1463.9 183.4H1401.6L1383.7 297.8Z" fill="black"/>
    <path d="M1032.9 416.4H1167.2L1175.3 364.5H1103.3L1109.5 325.8H1176.6L1184.5 275.2H1117.7L1123.5 237.1H1195.6L1204.1 183.4H1069.8L1032.9 416.4Z" fill="black"/>
    <path d="M987.3 192.8C970 184 949.2 183.4 924 183.4H860.1L823 416.4H885L898 335.2H924.1C950.5 335.2 971 334.5 987.7 324.5C1008.5 311.5 1022.9 285.4 1022.9 255.4C1022.8 225.7 1010.8 204.9 987.3 192.8ZM911.7 285.6H905.8L914.3 232.8H925.4C950.8 232.8 963.2 240 963.2 257.6C963.1 281.7 944.9 285.6 911.7 285.6Z" fill="black"/>
    <path d="M804.9 133.9C809.6 104.1 812 82.8 812 69.8C812 27.9 777.7 0.5 724.7 0.5C683.5 0.5 652.9 16.3 636.4 44.8C626.5 61.8 623.4 81.3 619.9 102.7L614.5 137H674C682.8 81.4 688.6 54.6 721.3 54.6C740.5 54.6 751.6 65.7 751.6 84.7C751.6 93.6 750.1 104.2 747.9 117.2L736.3 190.4C723.6 186.3 709.6 184 694.3 184C654.3 184 619.3 199.5 595.7 227.1C575.5 250.6 565.4 279.8 565.4 312.6C565.4 343.6 578.1 372.1 599.2 390.3C619.4 407.6 645.1 416.4 676.9 416.4C717.1 416.4 750.9 401.2 775.1 373C806.2 336.8 805.8 294.3 805.7 287.5C805.1 260.6 796 239.9 789.7 228.4L804.9 133.9ZM716.2 257C714.8 266.1 707.9 274.3 698.9 277.6L704.9 356.9L705.8 368.8L647 368.7L648.5 364.7L652.2 355.2L682.6 277.5C674.6 274.2 670.3 266 671.8 257C672.9 249.5 677.8 242.8 684.1 238.8H684.2C687.8 236.5 691.8 235.2 695.8 234.9C696.4 234.9 696.9 234.8 697.5 234.8C704.2 234.8 710 237.8 713.3 243C713.3 243 713.3 243 713.4 243C715.9 246.8 717 251.7 716.2 257Z" fill="black"/>
    <path d="M271.4 225.4C252.8 248.4 242.5 277.3 242.5 308.9C242.5 373.2 283.2 416.4 347.1 416.4C368.2 416.4 386.6 413.9 401.7 409L411 351.6C393.3 359 376.9 363 360.4 363C323.4 363 303 342.2 303 306.4C303 266.3 329.7 238.1 366.3 238.1C387.4 238.1 407.9 245.5 425.3 260.4L435.2 199.2C416.9 189.9 395.1 183.4 368.7 183.4C327.3 183.5 293.4 198.4 271.4 225.4Z" fill="black"/>
    <path d="M143.7 265.7C133.6 330 129.1 361 93.6 361C74 361 62.6 349.6 62.6 330.3C62.6 321.2 64.2001 310.4 66.4001 297.1L84.5001 183.5H23.7001L8.10004 280C3.30004 310.4 0.800049 332.2 0.800049 345.5C0.800049 388.3 35.9001 416.4 90.0001 416.4C132.1 416.4 163.4 400.3 180.2 371.1C190.3 353.7 193.5 333.8 197 311.9L217.2 183.4H156.6L143.7 265.7Z" fill="black"/>
</svg>