<svg xmlns="http://www.w3.org/2000/svg" width="2381" height="479" fill="none"><style>path{fill:#000}@media (prefers-color-scheme:dark){path{fill:#fff}}</style><path fill="#000" fill-rule="evenodd" d="M822.563 117.2a1174.435 1174.435 0 0 1-2.663 17.7l-.37 2.3h1457.71l6.76 31.2h20.47l-9.4-43.319-1.71-7.881H822.563ZM2346.8 458l-5.77-26.6h20.47l7.47 34.481L2371.6 478H5.846l1.545-11.349 8.63-63.389c4.964 5.787 11.058 10.791 18.156 14.907L28.754 458H2346.8ZM68.17 168.5l4.26-31.3h527.475l2.896-20H54.969l-1.178 8.651-5.806 42.649h20.184Zm623.824-51.3H732.9l-3.169 20H689.58c1.042-7.094 1.803-13.765 2.414-20Z" clip-rule="evenodd"/><path fill="#000" d="M2329.2 183.4H2263l-126.4 233h64.3l22.4-40.5h83.5l8.7 40.5h64.6l-50.9-233Zm-81.8 146.2 36.7-74.2h.6l13 74.2h-50.3ZM2187.3 234.7l8.1-51.3h-160.5l-8.1 51.3h50l-28.7 181.7h60.5l28.7-181.7h50ZM1903 183.4l-126.4 233h64.3l22.4-40.5h83.5l8.7 40.5h64.6l-50.9-233H1903Zm-15.7 146.2 36.7-74.2h.6l13 74.2h-50.3ZM1688.1 183.4h-85.9l-36.8 233h85.9c64.6 0 126.4-51 136.8-116.5 10.3-65.5-35.1-116.5-100-116.5Zm36.9 116.5c-7.2 45.4-41.2 65.3-77.4 65.3H1634l20.6-130.4h14.2c39-.1 62.7 23.4 56.2 65.1ZM1383.7 297.8c-1.6 11.4-2.9 22.5-2.9 32.9v5.9c-3.9-17.3-9.8-29.3-13.4-38.1l-49.2-115.1h-71.1l-36.8 233h62.3l17.6-118c1.3-10.1 2.6-20.8 2.6-32.2v-6.5c3.9 16.3 9.4 28.7 13.7 38.1l52.1 118.6h68.5l36.8-233h-62.3l-17.9 114.4ZM1032.9 416.4h134.3l8.1-51.9h-72l6.2-38.7h67.1l7.9-50.6h-66.8l5.8-38.1h72.1l8.5-53.7h-134.3l-36.9 233ZM987.3 192.8c-17.3-8.8-38.1-9.4-63.3-9.4h-63.9l-37.1 233h62l13-81.2h26.1c26.4 0 46.9-.7 63.6-10.7 20.8-13 35.2-39.1 35.2-69.1-.1-29.7-12.1-50.5-35.6-62.6Zm-75.6 92.8h-5.9l8.5-52.8h11.1c25.4 0 37.8 7.2 37.8 24.8-.1 24.1-18.3 28-51.5 28ZM804.9 133.9c4.7-29.8 7.1-51.1 7.1-64.1C812 27.9 777.7.5 724.7.5c-41.2 0-71.8 15.8-88.3 44.3-9.9 17-13 36.5-16.5 57.9l-5.4 34.3H674c8.8-55.6 14.6-82.4 47.3-82.4 19.2 0 30.3 11.1 30.3 30.1 0 8.9-1.5 19.5-3.7 32.5l-11.6 73.2c-12.7-4.1-26.7-6.4-42-6.4-40 0-75 15.5-98.6 43.1-20.2 23.5-30.3 52.7-30.3 85.5 0 31 12.7 59.5 33.8 77.7 20.2 17.3 45.9 26.1 77.7 26.1 40.2 0 74-15.2 98.2-43.4 31.1-36.2 30.7-78.7 30.6-85.5-.6-26.9-9.7-47.6-16-59.1l15.2-94.5ZM716.2 257c-1.4 9.1-8.3 17.3-17.3 20.6l6 79.3.9 11.9-58.8-.1 1.5-4 3.7-9.5 30.4-77.7c-8-3.3-12.3-11.5-10.8-20.5 1.1-7.5 6-14.2 12.3-18.2h.1c3.6-2.3 7.6-3.6 11.6-3.9.6 0 1.1-.1 1.7-.1 6.7 0 12.5 3 15.8 8.2h.1c2.5 3.8 3.6 8.7 2.8 14ZM271.4 225.4c-18.6 23-28.9 51.9-28.9 83.5 0 64.3 40.7 107.5 104.6 107.5 21.1 0 39.5-2.5 54.6-7.4l9.3-57.4c-17.7 7.4-34.1 11.4-50.6 11.4-37 0-57.4-20.8-57.4-56.6 0-40.1 26.7-68.3 63.3-68.3 21.1 0 41.6 7.4 59 22.3l9.9-61.2c-18.3-9.3-40.1-15.8-66.5-15.8-41.4.1-75.3 15-97.3 42ZM143.7 265.7C133.6 330 129.1 361 93.6 361c-19.6 0-31-11.4-31-30.7 0-9.1 1.6-19.9 3.8-33.2l18.1-113.6H23.7L8.1 280C3.3 310.4.8 332.2.8 345.5c0 42.8 35.1 70.9 89.2 70.9 42.1 0 73.4-16.1 90.2-45.3 10.1-17.4 13.3-37.3 16.8-59.2l20.2-128.5h-60.6l-12.9 82.3Z"/></svg>