<svg xmlns="http://www.w3.org/2000/svg" width="859" height="379" fill="none"><style>path{fill:#000}@media (prefers-color-scheme:dark){path{fill:#fff}}</style><path fill="#000" fill-rule="evenodd" d="M27.776 22A37.385 37.385 0 0 1 36.94 7H0v372h859V7H688v15h156v342H15V22h12.776Zm71.448 0h502.992c2.625-6.106 6.909-11.18 11.491-15H90.06a37.385 37.385 0 0 1 9.164 15Z" clip-rule="evenodd"/><path fill="#000" d="m168.214 127.25 27.3-77.25h14.25l-41.25 110.25-31.5-81.6-31.5 81.6L64.264 50h14.25l27.9 77.25 30.6-82.5 31.2 82.5Zm77.638-24.75c0 7.9 1.7 14.95 5.1 21.15 3.5 6.2 8.25 11.1 14.25 14.7 6 3.6 12.8 5.4 20.4 5.4 7.7 0 14.5-1.8 20.4-5.4 6-3.6 10.7-8.5 14.1-14.7 3.5-6.2 5.25-13.25 5.25-21.15 0-7.9-1.75-14.95-5.25-21.15-3.4-6.2-8.1-11.1-14.1-14.7-5.9-3.6-12.7-5.4-20.4-5.4-7.6 0-14.4 1.8-20.4 5.4-6 3.6-10.75 8.5-14.25 14.7-3.4 6.2-5.1 13.25-5.1 21.15Zm-13.5 0c0-7.7 1.3-14.8 3.9-21.3 2.7-6.6 6.45-12.3 11.25-17.1 4.8-4.9 10.45-8.7 16.95-11.4 6.5-2.8 13.55-4.2 21.15-4.2 7.7 0 14.75 1.4 21.15 4.2 6.5 2.7 12.15 6.5 16.95 11.4 4.8 4.8 8.5 10.5 11.1 17.1 2.7 6.5 4.05 13.6 4.05 21.3 0 7.6-1.35 14.7-4.05 21.3-2.6 6.6-6.3 12.35-11.1 17.25-4.8 4.8-10.45 8.6-16.95 11.4-6.4 2.7-13.45 4.05-21.15 4.05-7.6 0-14.65-1.35-21.15-4.05-6.5-2.8-12.15-6.6-16.95-11.4-4.8-4.9-8.55-10.65-11.25-17.25-2.6-6.6-3.9-13.7-3.9-21.3Zm160.506.75h14.25l37.5 51.75h-15.75l-36-51.75ZM374.108 50h12.75v105h-12.75V50Zm7.05 11.25V50h21.45c6.8 0 12.85 1.3 18.15 3.9 5.4 2.5 9.65 6.1 12.75 10.8 3.2 4.7 4.8 10.3 4.8 16.8 0 6.4-1.6 12-4.8 16.8-3.1 4.7-7.35 8.35-12.75 10.95-5.3 2.5-11.35 3.75-18.15 3.75h-21.45v-11.25h21.45c4.5 0 8.45-.8 11.85-2.4 3.5-1.6 6.2-3.9 8.1-6.9 2-3 3-6.65 3-10.95 0-4.3-1-7.95-3-10.95-1.9-3-4.6-5.3-8.1-6.9-3.4-1.6-7.35-2.4-11.85-2.4h-21.45ZM475.293 50h12.75v105h-12.75V50Zm54 0h15.75l-45.45 49.2 47.7 55.8h-15.75l-47.4-55.5 45.15-49.5Zm110.285 0h12.75v105h-12.75V50Zm133.518 0h12.75v110.25l-79.5-83.4V155h-12.75V44.75l79.5 83.4V50ZM47.614 230h12.75v105h-12.75V230Zm7.05 12v-12h21.45c6.8 0 12.85 1.3 18.15 3.9 5.4 2.5 9.65 6.1 12.75 10.8 3.2 4.7 4.8 10.3 4.8 16.8 0 6.4-1.6 12-4.8 16.8-3.1 4.7-7.35 8.35-12.75 10.95-5.3 2.5-11.35 3.75-18.15 3.75h-21.45v-12h21.45c6.8 0 12.3-1.65 16.5-4.95 4.3-3.3 6.45-8.15 6.45-14.55 0-6.5-2.15-11.35-6.45-14.55-4.2-3.3-9.7-4.95-16.5-4.95h-21.45Zm102.128 41.25h14.25l37.5 51.75h-15.75l-36-51.75ZM138.042 230h12.75v105h-12.75V230Zm7.05 11.25V230h21.45c6.8 0 12.85 1.3 18.15 3.9 5.4 2.5 9.65 6.1 12.75 10.8 3.2 4.7 4.8 10.3 4.8 16.8 0 6.4-1.6 12-4.8 16.8-3.1 4.7-7.35 8.35-12.75 10.95-5.3 2.5-11.35 3.75-18.15 3.75h-21.45v-11.25h21.45c4.5 0 8.45-.8 11.85-2.4 3.5-1.6 6.2-3.9 8.1-6.9 2-3 3-6.65 3-10.95 0-4.3-1-7.95-3-10.95-1.9-3-4.6-5.3-8.1-6.9-3.4-1.6-7.35-2.4-11.85-2.4h-21.45Zm92.636 41.25c0 7.9 1.7 14.95 5.1 21.15 3.5 6.2 8.25 11.1 14.25 14.7 6 3.6 12.8 5.4 20.4 5.4 7.7 0 14.5-1.8 20.4-5.4 6-3.6 10.7-8.5 14.1-14.7 3.5-6.2 5.25-13.25 5.25-21.15 0-7.9-1.75-14.95-5.25-21.15-3.4-6.2-8.1-11.1-14.1-14.7-5.9-3.6-12.7-5.4-20.4-5.4-7.6 0-14.4 1.8-20.4 5.4-6 3.6-10.75 8.5-14.25 14.7-3.4 6.2-5.1 13.25-5.1 21.15Zm-13.5 0c0-7.7 1.3-14.8 3.9-21.3 2.7-6.6 6.45-12.3 11.25-17.1 4.8-4.9 10.45-8.7 16.95-11.4 6.5-2.8 13.55-4.2 21.15-4.2 7.7 0 14.75 1.4 21.15 4.2 6.5 2.7 12.15 6.5 16.95 11.4 4.8 4.8 8.5 10.5 11.1 17.1 2.7 6.5 4.05 13.6 4.05 21.3 0 7.6-1.35 14.7-4.05 21.3-2.6 6.6-6.3 12.35-11.1 17.25-4.8 4.8-10.45 8.6-16.95 11.4-6.4 2.7-13.45 4.05-21.15 4.05-7.6 0-14.65-1.35-21.15-4.05-6.5-2.8-12.15-6.6-16.95-11.4-4.8-4.9-8.55-10.65-11.25-17.25-2.6-6.6-3.9-13.7-3.9-21.3Zm181.505 11.25v-12h48.75c0 7.3-1.1 14.25-3.3 20.85-2.2 6.5-5.45 12.3-9.75 17.4-4.3 5.1-9.6 9.15-15.9 12.15-6.2 2.9-13.3 4.35-21.3 4.35-7.6 0-14.65-1.3-21.15-3.9-6.5-2.7-12.15-6.45-16.95-11.25-4.8-4.9-8.55-10.65-11.25-17.25-2.6-6.6-3.9-13.8-3.9-21.6 0-7.8 1.3-15 3.9-21.6 2.7-6.6 6.45-12.3 11.25-17.1 4.8-4.9 10.45-8.65 16.95-11.25 6.5-2.7 13.55-4.05 21.15-4.05 6.5 0 12.45.85 17.85 2.55 5.5 1.7 10.4 4.2 14.7 7.5 4.4 3.3 8.1 7.4 11.1 12.3l-9 8.25c-3.3-5.6-7.9-9.95-13.8-13.05-5.9-3.2-12.85-4.8-20.85-4.8-7.4 0-14.1 1.75-20.1 5.25-6 3.5-10.8 8.35-14.4 14.55-3.5 6.1-5.25 13.25-5.25 21.45 0 8.1 1.75 15.25 5.25 21.45 3.6 6.2 8.4 11.05 14.4 14.55s12.7 5.25 20.1 5.25c5.2 0 9.85-.75 13.95-2.25 4.2-1.6 7.8-3.8 10.8-6.6 3-2.8 5.45-6 7.35-9.6 2-3.6 3.45-7.45 4.35-11.55h-34.95Zm94.559-10.5h14.25l37.5 51.75h-15.75l-36-51.75ZM481.542 230h12.75v105h-12.75V230Zm7.05 11.25V230h21.45c6.8 0 12.85 1.3 18.15 3.9 5.4 2.5 9.65 6.1 12.75 10.8 3.2 4.7 4.8 10.3 4.8 16.8 0 6.4-1.6 12-4.8 16.8-3.1 4.7-7.35 8.35-12.75 10.95-5.3 2.5-11.35 3.75-18.15 3.75h-21.45v-11.25h21.45c4.5 0 8.45-.8 11.85-2.4 3.5-1.6 6.2-3.9 8.1-6.9 2-3 3-6.65 3-10.95 0-4.3-1-7.95-3-10.95-1.9-3-4.6-5.3-8.1-6.9-3.4-1.6-7.35-2.4-11.85-2.4h-21.45ZM580.778 335v-12h52.95v12h-52.95Zm0-93v-12h52.95v12h-52.95Zm0 42v-12h49.95v12h-49.95Zm-7.05-54h12.75v105h-12.75V230Zm94.62 73.2c2.4 4.2 4.9 7.9 7.5 11.1 2.7 3.2 5.7 5.7 9 7.5 3.3 1.8 7.05 2.7 11.25 2.7 5.6 0 10.1-1.55 13.5-4.65 3.4-3.1 5.1-7.05 5.1-11.85 0-4.7-1.1-8.45-3.3-11.25-2.2-2.8-5.1-5.05-8.7-6.75-3.5-1.8-7.25-3.4-11.25-4.8-2.6-.9-5.5-2.05-8.7-3.45-3.2-1.5-6.25-3.35-9.15-5.55-2.9-2.3-5.3-5.1-7.2-8.4-1.8-3.3-2.7-7.35-2.7-12.15 0-5.2 1.3-9.85 3.9-13.95 2.6-4.1 6.2-7.3 10.8-9.6 4.6-2.4 9.85-3.6 15.75-3.6 5.7 0 10.65 1.1 14.85 3.3 4.3 2.1 7.95 4.85 10.95 8.25 3 3.3 5.35 6.8 7.05 10.5l-10.95 6.3c-1.3-2.6-2.95-5.15-4.95-7.65s-4.45-4.55-7.35-6.15c-2.8-1.6-6.25-2.4-10.35-2.4-5.7 0-9.85 1.4-12.45 4.2-2.6 2.7-3.9 5.75-3.9 9.15 0 2.9.75 5.6 2.25 8.1 1.5 2.4 4 4.7 7.5 6.9 3.6 2.1 8.45 4.2 14.55 6.3 2.8 1 5.75 2.3 8.85 3.9 3.1 1.6 5.95 3.65 8.55 6.15 2.7 2.4 4.9 5.35 6.6 8.85 1.7 3.4 2.55 7.5 2.55 12.3 0 4.6-.9 8.75-2.7 12.45-1.7 3.7-4.1 6.85-7.2 9.45-3 2.6-6.45 4.6-10.35 6-3.8 1.4-7.8 2.1-12 2.1-5.7 0-11-1.2-15.9-3.6-4.8-2.5-9.05-5.75-12.75-9.75-3.6-4.1-6.55-8.45-8.85-13.05l10.2-6.9Zm90.428 0c2.4 4.2 4.9 7.9 7.5 11.1 2.7 3.2 5.7 5.7 9 7.5 3.3 1.8 7.05 2.7 11.25 2.7 5.6 0 10.1-1.55 13.5-4.65 3.4-3.1 5.1-7.05 5.1-11.85 0-4.7-1.1-8.45-3.3-11.25-2.2-2.8-5.1-5.05-8.7-6.75-3.5-1.8-7.25-3.4-11.25-4.8-2.6-.9-5.5-2.05-8.7-3.45-3.2-1.5-6.25-3.35-9.15-5.55-2.9-2.3-5.3-5.1-7.2-8.4-1.8-3.3-2.7-7.35-2.7-12.15 0-5.2 1.3-9.85 3.9-13.95 2.6-4.1 6.2-7.3 10.8-9.6 4.6-2.4 9.85-3.6 15.75-3.6 5.7 0 10.65 1.1 14.85 3.3 4.3 2.1 7.95 4.85 10.95 8.25 3 3.3 5.35 6.8 7.05 10.5l-10.95 6.3c-1.3-2.6-2.95-5.15-4.95-7.65s-4.45-4.55-7.35-6.15c-2.8-1.6-6.25-2.4-10.35-2.4-5.7 0-9.85 1.4-12.45 4.2-2.6 2.7-3.9 5.75-3.9 9.15 0 2.9.75 5.6 2.25 8.1 1.5 2.4 4 4.7 7.5 6.9 3.6 2.1 8.45 4.2 14.55 6.3 2.8 1 5.75 2.3 8.85 3.9 3.1 1.6 5.95 3.65 8.55 6.15 2.7 2.4 4.9 5.35 6.6 8.85 1.7 3.4 2.55 7.5 2.55 12.3 0 4.6-.9 8.75-2.7 12.45-1.7 3.7-4.1 6.85-7.2 9.45-3 2.6-6.45 4.6-10.35 6-3.8 1.4-7.8 2.1-12 2.1-5.7 0-11-1.2-15.9-3.6-4.8-2.5-9.05-5.75-12.75-9.75-3.6-4.1-6.55-8.45-8.85-13.05l10.2-6.9Z"/><path fill="#000" fill-rule="evenodd" d="M654 7s1.596-.084 3.999 1.998c2.32 2.01 4.014 2.005 4.91 2.003h.213c.686.008 2.846.032 3.878-1 .789-.789 2.199-.956 2.76-.991.079-.006.159-.01.24-.01h5a3 3 0 0 1 3 3v10a3 3 0 0 1-3 3h-5c-.17 0-.338-.014-.5-.041l-.001.039S667.5 24.5 666.5 24s-3.945-.626-6 0c-3.041.927-4.5 3.5-4.5 3.5V35a2 2 0 0 1-2 2h-16a2 2 0 0 1-2-2v-7.5s-1.308-3.705-3.5-5c-2.192-1.294-7 1.5-11 4.5s-12 12-12 12-.5.5-1 0-.5-1.5-.5-1.5c3.001-18 21-29.5 29.499-30.5l-.004.065c.161-.042.33-.065.505-.065h16Z" clip-rule="evenodd"/><rect width="12.75" height="11" x="639.58" y="41" fill="#000" rx="2"/><path fill="#000" fill-rule="evenodd" d="M43.944 15.815a25.627 25.627 0 0 0-4.83 8.571c-4.481 13.468 2.804 28.019 16.272 32.5 13.468 4.481 28.019-2.804 32.5-16.272 4.481-13.468-2.804-28.019-16.272-32.5a25.786 25.786 0 0 0-5.602-1.197l8.63 18.425a4 4 0 0 1-1.926 5.32l-14.272 6.683a4 4 0 0 1-5.319-1.926l-9.181-19.604Z" clip-rule="evenodd"/></svg>